0
SECTION
2
HEADER
9
$INSUNITS
70
4
9
$ACADVER
1
AC1014
9
$HANDSEED
5
FFFF
0
ENDSEC
0
SECTION
2
TABLES
0
TABLE
2
VPORT
5
8
100
AcDbSymbolTable
0
ENDTAB
0
TABLE
2
LTYPE
5
5
100
AcDbSymbolTable
0
LTYPE
5
14
100
AcDbSymbolTableRecord
100
AcDbLinetypeTableRecord
2
BYBLOCK
70
0
0
LTYPE
5
15
100
AcDbSymbolTableRecord
100
AcDbLinetypeTableRecord
2
BYLAYER
70
0
0
ENDTAB
0
TABLE
2
LAYER
5
2
100
AcDbSymbolTable
70
2
0
LAYER
5
50
100
AcDbSymbolTableRecord
100
AcDbLayerTableRecord
2
0
70
0
6
CONTINUOUS
0
ENDTAB
0
TABLE
2
STYLE
5
3
100
AcDbSymbolTable
70
1
0
STYLE
5
11
100
AcDbSymbolTableRecord
100
AcDbTextStyleTableRecord
2
STANDARD
70
0
0
ENDTAB
0
TABLE
2
VIEW
5
6
100
AcDbSymbolTable
70
0
0
ENDTAB
0
TABLE
2
UCS
5
7
100
AcDbSymbolTable
70
0
0
ENDTAB
0
TABLE
2
APPID
5
9
100
AcDbSymbolTable
70
2
0
APPID
5
12
100
AcDbSymbolTableRecord
100
AcDbRegAppTableRecord
2
ACAD
70
0
0
ENDTAB
0
TABLE
2
DIMSTYLE
5
A
100
AcDbSymbolTable
70
1
0
ENDTAB
0
TABLE
2
BLOCK_RECORD
5
1
100
AcDbSymbolTable
70
1
0
BLOCK_RECORD
5
1F
100
AcDbSymbolTableRecord
100
AcDbBlockTableRecord
2
*MODEL_SPACE
0
BLOCK_RECORD
5
1B
100
AcDbSymbolTableRecord
100
AcDbBlockTableRecord
2
*PAPER_SPACE
0
ENDTAB
0
ENDSEC
0
SECTION
2
BLOCKS
0
BLOCK
5
20
100
AcDbEntity
100
AcDbBlockBegin
2
*MODEL_SPACE
0
ENDBLK
5
21
100
AcDbEntity
100
AcDbBlockEnd
0
BLOCK
5
1C
100
AcDbEntity
100
AcDbBlockBegin
2
*PAPER_SPACE
0
ENDBLK
5
1D
100
AcDbEntity
100
AcDbBlockEnd
0
ENDSEC
0
SECTION
2
ENTITIES
0
LWPOLYLINE
5
100
100
AcDbEntity
8
0
100
AcDbPolyline
90
8
70
1
43
0.0
10
49.910000000000039
20
-24.064999985098897
10
-49.909999999999982
20
-24.0649999850989
42
-0.41421356237308593
10
-50.909999985098821
20
-23.065000000000065
10
-50.909999985098807
20
25.955000000000034
42
-0.4142135623730937
10
-49.909999999999968
20
26.954999985098873
10
49.910000000000025
20
26.954999985098873
42
-0.41421356237309509
10
50.909999985098864
20
25.95500000000003
10
50.909999985098864
20
-23.065000000000051
42
-0.41421356237308982
0
CIRCLE
5
101
100
AcDbEntity
8
0
100
AcDbCircle
10
1.9205365440500203e-14
20
17.95500000000002
30
0
40
3.75
0
CIRCLE
5
102
100
AcDbEntity
8
0
100
AcDbCircle
10
-24.764999999999979
20
1.4449999999999781
30
0
40
3.75
0
LWPOLYLINE
5
103
100
AcDbEntity
8
0
100
AcDbPolyline
90
4
70
1
43
0.0
10
-37.409999999999911
20
22.45500000000003
10
-46.40999999999994
20
22.45500000000003
10
-46.409999999999926
20
13.455000000000004
10
-37.409999999999904
20
13.455000000000004
0
CIRCLE
5
104
100
AcDbEntity
8
0
100
AcDbCircle
10
-41.909999999999968
20
7.1600000000000001
30
0
40
3.75
0
CIRCLE
5
105
100
AcDbEntity
8
0
100
AcDbCircle
10
-13.970000000000001
20
17.954999999999981
30
1.1102230246251565e-15
40
3.75
0
CIRCLE
5
106
100
AcDbEntity
8
0
100
AcDbCircle
10
-27.940000000000023
20
17.955000000000034
30
0
40
3.75
0
CIRCLE
5
107
100
AcDbEntity
8
0
100
AcDbCircle
10
8.2550000000000363
20
1.4449999999999759
30
1.1102230246251565e-15
40
3.75
0
CIRCLE
5
108
100
AcDbEntity
8
0
100
AcDbCircle
10
-8.2549999999999919
20
1.4449999999999892
30
0
40
3.75
0
LWPOLYLINE
5
109
100
AcDbEntity
8
0
100
AcDbPolyline
90
4
70
1
43
0.0
10
46.409999999999975
20
-3.0550000000000255
10
46.409999999999975
20
5.9449999999999985
10
37.409999999999947
20
5.9450000000000003
10
37.409999999999954
20
-3.0550000000000259
0
CIRCLE
5
110
100
AcDbEntity
8
0
100
AcDbCircle
10
27.940000000000047
20
-15.065000000000055
30
1.1102230246251565e-15
40
3.75
0
CIRCLE
5
111
100
AcDbEntity
8
0
100
AcDbCircle
10
8.2550000000000363
20
-15.065000000000019
30
1.1102230246251565e-15
40
3.75
0
LWPOLYLINE
5
112
100
AcDbEntity
8
0
100
AcDbPolyline
90
4
70
1
43
0.0
10
37.409999999999954
20
-19.565000000000055
10
46.409999999999975
20
-19.565000000000055
10
46.409999999999975
20
-10.565000000000031
10
37.409999999999947
20
-10.565000000000031
0
CIRCLE
5
113
100
AcDbEntity
8
0
100
AcDbCircle
10
-41.909999999999968
20
-15.065000000000051
30
0
40
3.75
0
CIRCLE
5
114
100
AcDbEntity
8
0
100
AcDbCircle
10
-24.764999999999983
20
-15.065000000000055
30
0
40
3.75
0
CIRCLE
5
115
100
AcDbEntity
8
0
100
AcDbCircle
10
-8.2549999999999919
20
-15.065000000000051
30
0
40
3.75
0
LWPOLYLINE
5
116
100
AcDbEntity
8
0
100
AcDbPolyline
90
4
70
1
43
0.0
10
-46.40999999999994
20
-0.40500000000002867
10
-46.409999999999926
20
-9.4050000000000527
10
-37.409999999999904
20
-9.4050000000000527
10
-37.409999999999911
20
-0.40500000000002812
0
CIRCLE
5
117
100
AcDbEntity
8
0
100
AcDbCircle
10
27.94000000000004
20
17.955000000000002
30
1.1102230246251565e-15
40
3.75
0
CIRCLE
5
118
100
AcDbEntity
8
0
100
AcDbCircle
10
13.97000000000002
20
17.955000000000037
30
0
40
3.75
0
CIRCLE
5
119
100
AcDbEntity
8
0
100
AcDbCircle
10
41.910000000000025
20
17.955000000000027
30
0
40
3.75
0
CIRCLE
5
120
100
AcDbEntity
8
0
100
AcDbCircle
10
27.940000000000033
20
1.444999999999979
30
1.1102230246251565e-15
40
3.75
0
LWPOLYLINE
5
121
100
AcDbEntity
8
0
100
AcDbPolyline
90
4
70
1
43
0.0
10
-58.299999999999983
20
-32.875000000000007
10
-58.299999999999976
20
32.875000000000007
10
58.29999999999999
20
32.875000000000007
10
58.299999999999983
20
-32.875000000000007
0
LWPOLYLINE
5
122
100
AcDbEntity
8
0
100
AcDbPolyline
90
8
70
1
43
0.0
10
-51.909999999999968
20
25.955000000000027
10
-51.909999999999982
20
-23.065000000000065
42
0.41421356237309109
10
-49.909999999999989
20
-25.065000000000062
10
49.910000000000039
20
-25.065000000000058
42
0.4142135623730957
10
51.910000000000025
20
-23.065000000000051
10
51.910000000000025
20
25.95500000000003
42
0.41421356237309176
10
49.910000000000032
20
27.955000000000034
10
-49.909999999999961
20
27.955000000000034
42
0.41421356237309309
0
ENDSEC
0
SECTION
2
OBJECTS
0
DICTIONARY
5
C
100
AcDbDictionary
3
ACAD_GROUP
350
D
3
ACAD_MLINESTYLE
350
17
0
DICTIONARY
5
D
100
AcDbDictionary
0
DICTIONARY
5
1A
330
C
100
AcDbDictionary
0
DICTIONARY
5
17
100
AcDbDictionary
0
ENDSEC
0
EOF
