0
SECTION
2
HEADER
9
$INSUNITS
70
1
9
$ACADVER
1
AC1014
9
$HANDSEED
5
FFFF
0
ENDSEC
0
SECTION
2
TABLES
0
TABLE
2
VPORT
5
8
100
AcDbSymbolTable
0
ENDTAB
0
TABLE
2
LTYPE
5
5
100
AcDbSymbolTable
0
LTYPE
5
14
100
AcDbSymbolTableRecord
100
AcDbLinetypeTableRecord
2
BYBLOCK
70
0
0
LTYPE
5
15
100
AcDbSymbolTableRecord
100
AcDbLinetypeTableRecord
2
BYLAYER
70
0
0
ENDTAB
0
TABLE
2
LAYER
5
2
100
AcDbSymbolTable
70
2
0
LAYER
5
50
100
AcDbSymbolTableRecord
100
AcDbLayerTableRecord
2
0
70
0
6
CONTINUOUS
0
ENDTAB
0
TABLE
2
STYLE
5
3
100
AcDbSymbolTable
70
1
0
STYLE
5
11
100
AcDbSymbolTableRecord
100
AcDbTextStyleTableRecord
2
STANDARD
70
0
0
ENDTAB
0
TABLE
2
VIEW
5
6
100
AcDbSymbolTable
70
0
0
ENDTAB
0
TABLE
2
UCS
5
7
100
AcDbSymbolTable
70
0
0
ENDTAB
0
TABLE
2
APPID
5
9
100
AcDbSymbolTable
70
2
0
APPID
5
12
100
AcDbSymbolTableRecord
100
AcDbRegAppTableRecord
2
ACAD
70
0
0
ENDTAB
0
TABLE
2
DIMSTYLE
5
A
100
AcDbSymbolTable
70
1
0
ENDTAB
0
TABLE
2
BLOCK_RECORD
5
1
100
AcDbSymbolTable
70
1
0
BLOCK_RECORD
5
1F
100
AcDbSymbolTableRecord
100
AcDbBlockTableRecord
2
*MODEL_SPACE
0
BLOCK_RECORD
5
1B
100
AcDbSymbolTableRecord
100
AcDbBlockTableRecord
2
*PAPER_SPACE
0
ENDTAB
0
ENDSEC
0
SECTION
2
BLOCKS
0
BLOCK
5
20
100
AcDbEntity
100
AcDbBlockBegin
2
*MODEL_SPACE
0
ENDBLK
5
21
100
AcDbEntity
100
AcDbBlockEnd
0
BLOCK
5
1C
100
AcDbEntity
100
AcDbBlockBegin
2
*PAPER_SPACE
0
ENDBLK
5
1D
100
AcDbEntity
100
AcDbBlockEnd
0
ENDSEC
0
SECTION
2
ENTITIES
0
LWPOLYLINE
5
100
100
AcDbEntity
8
0
100
AcDbPolyline
90
6
70
1
43
0.0
10
0.62499999999999989
20
-2.8340551181102365
10
-0.62499999999999989
20
-2.8340551181102365
42
0.99999999999999989
10
-0.62499999999999989
20
-3.0340551181102362
10
-0.16248076809271897
20
-3.0340551181102362
42
0.67700320038632877
10
0.16248076809271891
20
-3.0340551181102362
10
0.62499999999999989
20
-3.0340551181102362
42
0.99999999999999989
0
LWPOLYLINE
5
101
100
AcDbEntity
8
0
100
AcDbPolyline
90
8
70
1
43
0.0
10
2.5649606299212593
20
2.1899606299212593
42
-0.41421356237309587
10
3.0649606299212593
20
1.6899606299212595
10
3.0649606299212588
20
-2.9340551181102366
42
-0.41421356237309465
10
2.5649606299212593
20
-3.4340551181102361
10
-2.5649606299212602
20
-3.4340551181102361
42
-0.41421356237309481
10
-3.0649606299212593
20
-2.9340551181102374
10
-3.0649606299212588
20
1.6899606299212602
42
-0.41421356237309442
10
-2.5649606299212597
20
2.1899606299212597
0
LWPOLYLINE
5
102
100
AcDbEntity
8
0
100
AcDbPolyline
90
8
70
1
43
0.0
10
-2.5649999999999991
20
-1.7537401574803149
42
-0.41421356237309537
10
-2.8649999999999993
20
-1.453740157480315
10
-2.8649999999999993
20
1.6899606299212591
42
-0.4142135623730957
10
-2.5649999999999991
20
1.9899606299212593
10
2.5649999999999991
20
1.9899606299212593
42
-0.4142135623730957
10
2.8649999999999993
20
1.6899606299212591
10
2.8649999999999993
20
-1.453740157480315
42
-0.41421356237309553
10
2.5649999999999991
20
-1.7537401574803149
0
LWPOLYLINE
5
103
100
AcDbEntity
8
0
100
AcDbPolyline
90
8
70
1
43
0.0
10
-2.4649999999999994
20
1.3649606299212482
10
-2.4649999999999994
20
-1.1287401574803151
42
0.41421356237309509
10
-2.2399999999999998
20
-1.353740157480315
10
2.2399999999999998
20
-1.353740157480315
42
0.4142135623730952
10
2.4649999999999994
20
-1.1287401574803149
10
2.4649999999999994
20
1.364960629921248
42
0.41421356237309509
10
2.2399999999999998
20
1.5899606299212481
10
-2.2399999999999998
20
1.5899606299212481
42
0.41421356237309481
0
ENDSEC
0
SECTION
2
OBJECTS
0
DICTIONARY
5
C
100
AcDbDictionary
3
ACAD_GROUP
350
D
3
ACAD_MLINESTYLE
350
17
0
DICTIONARY
5
D
100
AcDbDictionary
0
DICTIONARY
5
1A
330
C
100
AcDbDictionary
0
DICTIONARY
5
17
100
AcDbDictionary
0
ENDSEC
0
EOF
